<mxfile host="65bd71144e">
    <diagram id="FdwvZAklIV2ERMdny6-9" name="Smartphone Portrait">
        <mxGraphModel dx="480" dy="587" grid="1" gridSize="10" guides="1" tooltips="1" connect="1" arrows="1" fold="1" page="1" pageScale="1" pageWidth="850" pageHeight="1100" math="0" shadow="0">
            <root>
                <mxCell id="kpiRYRH_1pfKevnFQp8S-0"/>
                <mxCell id="kpiRYRH_1pfKevnFQp8S-1" parent="kpiRYRH_1pfKevnFQp8S-0"/>
                <mxCell id="kpiRYRH_1pfKevnFQp8S-2" value="" style="strokeWidth=1;shadow=0;dashed=0;align=center;html=1;shape=mxgraph.mockup.containers.browserWindow;rSize=0;strokeColor=#666666;strokeColor2=#008cff;strokeColor3=#c4c4c4;mainText=,;recursiveResize=0;" vertex="1" parent="kpiRYRH_1pfKevnFQp8S-1">
                    <mxGeometry x="200" y="60" width="260" height="500" as="geometry"/>
                </mxCell>
                <mxCell id="kpiRYRH_1pfKevnFQp8S-3" value="Page 1" style="strokeWidth=1;shadow=0;dashed=0;align=center;html=1;shape=mxgraph.mockup.containers.anchor;fontSize=17;fontColor=#666666;align=left;" vertex="1" parent="kpiRYRH_1pfKevnFQp8S-2">
                    <mxGeometry x="60" y="12" width="110" height="26" as="geometry"/>
                </mxCell>
                <mxCell id="kpiRYRH_1pfKevnFQp8S-4" value="https://www.draw.io" style="strokeWidth=1;shadow=0;dashed=0;align=center;html=1;shape=mxgraph.mockup.containers.anchor;rSize=0;fontSize=17;fontColor=#666666;align=left;" vertex="1" parent="kpiRYRH_1pfKevnFQp8S-2">
                    <mxGeometry x="130" y="60" width="250" height="26" as="geometry"/>
                </mxCell>
                <mxCell id="kpiRYRH_1pfKevnFQp8S-5" value="" style="rounded=0;whiteSpace=wrap;html=1;fillColor=#0050ef;fontColor=#ffffff;strokeColor=#001DBC;" vertex="1" parent="kpiRYRH_1pfKevnFQp8S-2">
                    <mxGeometry y="110" width="260" height="70" as="geometry"/>
                </mxCell>
                <mxCell id="kpiRYRH_1pfKevnFQp8S-6" value="" style="rounded=0;whiteSpace=wrap;html=1;" vertex="1" parent="kpiRYRH_1pfKevnFQp8S-2">
                    <mxGeometry x="210" y="115" width="50" height="60" as="geometry"/>
                </mxCell>
                <mxCell id="kpiRYRH_1pfKevnFQp8S-7" value="" style="rounded=0;whiteSpace=wrap;html=1;fillColor=#60a917;fontColor=#ffffff;strokeColor=#2D7600;" vertex="1" parent="kpiRYRH_1pfKevnFQp8S-2">
                    <mxGeometry y="180" width="260" height="80" as="geometry"/>
                </mxCell>
                <mxCell id="kpiRYRH_1pfKevnFQp8S-8" value="" style="rounded=0;whiteSpace=wrap;html=1;fillColor=#d80073;fontColor=#ffffff;strokeColor=#A50040;" vertex="1" parent="kpiRYRH_1pfKevnFQp8S-2">
                    <mxGeometry y="260" width="260" height="80" as="geometry"/>
                </mxCell>
                <mxCell id="kpiRYRH_1pfKevnFQp8S-9" value="" style="rounded=0;whiteSpace=wrap;html=1;fillColor=#1ba1e2;fontColor=#ffffff;strokeColor=#006EAF;" vertex="1" parent="kpiRYRH_1pfKevnFQp8S-2">
                    <mxGeometry y="340" width="260" height="80" as="geometry"/>
                </mxCell>
            </root>
        </mxGraphModel>
    </diagram>
    <diagram id="XZTjm9igwguVtEXiHOXV" name="Desktop Landscape">
        <mxGraphModel dx="288" dy="352" grid="1" gridSize="10" guides="1" tooltips="1" connect="1" arrows="1" fold="1" page="1" pageScale="1" pageWidth="850" pageHeight="1100" math="0" shadow="0">
            <root>
                <mxCell id="0"/>
                <mxCell id="1" parent="0"/>
                <mxCell id="2" value="" style="strokeWidth=1;shadow=0;dashed=0;align=center;html=1;shape=mxgraph.mockup.containers.browserWindow;rSize=0;strokeColor=#666666;strokeColor2=#008cff;strokeColor3=#c4c4c4;mainText=,;recursiveResize=0;" vertex="1" parent="1">
                    <mxGeometry x="20" width="550" height="380" as="geometry"/>
                </mxCell>
                <mxCell id="3" value="Home" style="strokeWidth=1;shadow=0;dashed=0;align=center;html=1;shape=mxgraph.mockup.containers.anchor;fontSize=17;fontColor=#666666;align=left;" vertex="1" parent="2">
                    <mxGeometry x="60" y="12" width="110" height="26" as="geometry"/>
                </mxCell>
                <mxCell id="4" value="https://www.draw.io" style="strokeWidth=1;shadow=0;dashed=0;align=center;html=1;shape=mxgraph.mockup.containers.anchor;rSize=0;fontSize=17;fontColor=#666666;align=left;" vertex="1" parent="2">
                    <mxGeometry x="130" y="60" width="250" height="26" as="geometry"/>
                </mxCell>
                <mxCell id="5" value="Header" style="rounded=0;whiteSpace=wrap;html=1;fillColor=#6a00ff;fontColor=#ffffff;strokeColor=#3700CC;align=left;" vertex="1" parent="2">
                    <mxGeometry y="110" width="550" height="40" as="geometry"/>
                </mxCell>
                <mxCell id="6" value="" style="rounded=1;whiteSpace=wrap;html=1;fillColor=#60a917;fontColor=#ffffff;strokeColor=#2D7600;" vertex="1" parent="2">
                    <mxGeometry y="190" width="180" height="130" as="geometry"/>
                </mxCell>
                <mxCell id="7" value="" style="rounded=1;whiteSpace=wrap;html=1;fillColor=#f0a30a;fontColor=#000000;strokeColor=#BD7000;" vertex="1" parent="2">
                    <mxGeometry x="200" y="190" width="180" height="130" as="geometry"/>
                </mxCell>
                <mxCell id="8" value="" style="rounded=1;whiteSpace=wrap;html=1;fillColor=#76608a;fontColor=#ffffff;strokeColor=#432D57;" vertex="1" parent="2">
                    <mxGeometry x="400" y="190" width="150" height="130" as="geometry"/>
                </mxCell>
                <mxCell id="9" value="Footer" style="rounded=0;whiteSpace=wrap;html=1;fillColor=#a0522d;fontColor=#ffffff;strokeColor=#6D1F00;" vertex="1" parent="2">
                    <mxGeometry y="320" width="550" height="60" as="geometry"/>
                </mxCell>
                <mxCell id="10" value="Navigation" style="rounded=0;whiteSpace=wrap;html=1;fillColor=#a20025;fontColor=#ffffff;strokeColor=#6F0000;" vertex="1" parent="1">
                    <mxGeometry x="20" y="150" width="550" height="40" as="geometry"/>
                </mxCell>
            </root>
        </mxGraphModel>
    </diagram>
</mxfile>